<?xml version="1.0" ?><!DOCTYPE svg  PUBLIC '-//W3C//DTD SVG 1.1//EN'  'http://www.w3.org/Graphics/SVG/1.1/DTD/svg11.dtd'><svg enable-background="new 0 0 24 24" height="24px" id="Layer_1" version="1.1" viewBox="0 0 24 24" width="24px" xml:space="preserve" xmlns="http://www.w3.org/2000/svg" xmlns:xlink="http://www.w3.org/1999/xlink"><g><path d="M24,0c0-0.6-0.4-1-1-1H1C0.4-1,0-0.6,0,0v22c0,0.6,0.4,1,1,1h22c0.6,0,1-0.4,1-1V0z M22,21H2V1h20V21z"/><path d="M10,17c0,1.1,0.9,2,2,2s2-0.9,2-2s-0.9-2-2-2S10,15.9,10,17z M12,16c0.6,0,1,0.4,1,1s-0.4,1-1,1s-1-0.4-1-1S11.5,16,12,16z   "/><path d="M9,10c1.1,0,2-0.9,2-2c0-0.6,0.4-1,1-1s1,0.4,1,1s-0.5,1-1,1c-1.1,0-2,1-2,3v1c0,1.1,0.9,2,2,2s2-0.9,2-2c0,0,0,0,1-1h0   c0,0,0,0,0,0c1.2-0.9,2-2.3,2-4c0-2.8-2.2-5-5-5S7,5.2,7,8C7,9.1,7.9,10,9,10z M12,4c2.2,0,4,1.8,4,4c0,1.3-0.6,2.4-1.5,3.1   c-0.3,0.3-1.5,0.7-1.5,1.4V13c0,0.6-0.4,1-1,1s-1-0.4-1-1v-1c0-1,0.5-2,1-2c1.1,0,2-0.9,2-2s-0.9-2-2-2s-2,0.9-2,2c0,0.6-0.4,1-1,1   S8,8.6,8,8C8,5.8,9.8,4,12,4z"/></g></svg>