<?xml version="1.0" encoding="UTF-8"?><!DOCTYPE svg PUBLIC "-//W3C//DTD SVG 1.1//EN" "http://www.w3.org/Graphics/SVG/1.1/DTD/svg11.dtd"><svg xmlns="http://www.w3.org/2000/svg"><symbol id="icon-arrow" viewBox="0 0 512 512">
    <path d="M396.6 160l19.4 20.7L256 352 96 180.7l19.3-20.7L256 310.5z"/>
</symbol><symbol id="icon-basket" viewBox="0 0 48 48">
    <path d="M19 38c-2.2 0-4 1.8-4 4s1.8 4 4 4 4-1.8 4-4-1.8-4-4-4zm0 6c-1.1 0-2-.9-2-2s.9-2 2-2 2 .9 2 2-.9 2-2 2z"/>
    <path d="M37 38c-2.2 0-4 1.8-4 4s1.8 4 4 4 4-1.8 4-4-1.8-4-4-4zm0 6c-1.1 0-2-.9-2-2s.9-2 2-2 2 .9 2 2-.9 2-2 2z"/>
    <path d="M43.6 9.4c-.7-.9-1.9-1.4-3.1-1.4H12.8l-.4-2.6c-.3-1.9-2-3.4-4-3.4H2v2h6.4c1 0 1.9.7 2 1.7l4.2 27.1c.4 1.9 2.1 3.3 4 3.3H40v-2H18.6c-1 0-1.8-.7-2-1.7l-.4-2.4h22.2c1.9 0 3.6-1.4 4-3.5l2.1-14c.2-1.1-.1-2.2-.9-3.1zm-1.1 2.9l-2.1 14c-.2 1.1-1 1.8-2 1.8H15.9l-2.8-18h27.4c.6 0 1.2.3 1.6.7.4.3.5.9.4 1.5z"/>
</symbol><symbol id="icon-close" viewBox="0 0 128 128">
    <path d="M84.815 43.399a1.998 1.998 0 0 0-2.828 0L64.032 61.356 46.077 43.399a2 2 0 1 0-2.828 2.828l17.955 17.957-17.955 17.957a2 2 0 1 0 2.828 2.828l17.955-17.956 17.955 17.956c.391.39.902.585 1.414.585s1.023-.195 1.414-.585a2 2 0 0 0 0-2.828L66.86 64.184l17.955-17.957a1.998 1.998 0 0 0 0-2.828zM64.032 14.054c-27.642 0-50.129 22.487-50.129 50.127.002 27.643 22.491 50.131 50.133 50.131 27.639 0 50.125-22.489 50.125-50.131 0-27.64-22.487-50.127-50.129-50.127zm.004 96.259h-.002c-25.435 0-46.129-20.695-46.131-46.131 0-25.435 20.693-46.127 46.129-46.127s46.129 20.693 46.129 46.127c0 25.435-20.691 46.131-46.125 46.131z"/>
</symbol><symbol id="icon-facebook" viewBox="0 0 10 19">
    <title>
        facebook
    </title>
    <path d="M9.766.157v2.946H8.014c-.64 0-1.071.134-1.295.402-.223.268-.335.67-.335 1.205v2.11h3.27l-.435 3.303H6.384v8.471H2.97v-8.47H.123V6.82H2.97V4.387c0-1.384.387-2.457 1.161-3.22C4.904.404 5.934.023 7.222.023c1.093 0 1.941.045 2.544.134z" fill-rule="evenodd"/>
</symbol><symbol id="icon-facebookn" viewBox="0 0 56.693 56.693">
    <path d="M40.43 21.739h-7.645v-5.014c0-1.883 1.248-2.322 2.127-2.322h5.395V6.125l-7.43-.029c-8.248 0-10.125 6.174-10.125 10.125v5.518h-4.77v8.53h4.77v24.137h10.033V30.269h6.77l.875-8.53z"/>
</symbol><symbol id="icon-google-plus" viewBox="0 0 56.693 56.693">
    <path d="M52.218 25.852h-7.512v-7.51c0-.573-.465-1.039-1.037-1.039H41.53a1.04 1.04 0 0 0-1.041 1.039v7.51h-7.512c-.572 0-1.039.467-1.039 1.041v2.139a1.04 1.04 0 0 0 1.039 1.039h7.512v7.514a1.04 1.04 0 0 0 1.041 1.039h2.139c.572 0 1.037-.465 1.037-1.039V30.07h7.512a1.04 1.04 0 0 0 1.039-1.039v-2.139a1.04 1.04 0 0 0-1.039-1.04z"/>
    <path d="M26.974 32.438c-1.58-1.119-3.016-2.76-3.041-3.264 0-.918.082-1.357 2.141-2.961 2.662-2.084 4.128-4.824 4.128-7.719 0-2.625-.802-4.957-2.167-6.595h1.059c.219 0 .434-.068.609-.196l2.955-2.141c.367-.263.521-.732.381-1.161a1.042 1.042 0 0 0-.988-.72H18.835c-1.446 0-2.915.255-4.357.751-4.816 1.661-8.184 5.765-8.184 9.978 0 5.969 4.624 10.493 10.805 10.635a5.623 5.623 0 0 0-.182 1.396c0 .92.233 1.791.713 2.633h-.17c-5.892 0-11.21 2.891-13.229 7.193-.526 1.119-.794 2.25-.794 3.367a6.33 6.33 0 0 0 .826 3.113c1.269 2.27 3.994 4.031 7.677 4.961 1.901.48 3.944.725 6.065.725 1.906 0 3.723-.246 5.403-.732 5.238-1.521 8.625-5.377 8.625-9.828-.001-4.271-1.374-6.828-5.059-9.435zm-16.691 9.777c0-3.107 3.947-5.832 8.446-5.832h.121c.979.012 1.934.156 2.834.432.309.213.607.416.893.611 2.084 1.42 3.461 2.357 3.844 3.861.09.379.135.758.135 1.125 0 3.869-2.885 5.83-8.578 5.83-4.315 0-7.695-2.646-7.695-6.027zm4.094-29.357c.703-.803 1.624-1.227 2.658-1.227l.117.002c2.921.086 5.716 3.341 6.23 7.256.289 2.192-.199 4.253-1.301 5.509-.705.805-1.613 1.229-2.689 1.229h-.049c-2.861-.088-5.716-3.467-6.227-7.377-.287-2.186.173-4.151 1.261-5.392z"/>
</symbol><symbol id="icon-grid" viewBox="0 0 512 512">
    <path d="M64 66h64v60H64z"/>
    <path d="M64 386h64v60H64z"/>
    <path d="M64 279.3h64v60H64z"/>
    <path d="M64 172.7h64v60H64z"/>
    <g>
        <path d="M170.7 66h64v60h-64z"/>
        <path d="M170.7 386h64v60h-64z"/>
        <path d="M170.7 279.3h64v60h-64z"/>
        <path d="M170.7 172.7h64v60h-64z"/>
    </g>
    <g>
        <path d="M277.3 66h64v60h-64z"/>
        <path d="M277.3 386h64v60h-64z"/>
        <path d="M277.3 279.3h64v60h-64z"/>
        <path d="M277.3 172.7h64v60h-64z"/>
    </g>
    <g>
        <path d="M384 66h64v60h-64z"/>
        <path d="M384 386h64v60h-64z"/>
        <path d="M384 279.3h64v60h-64z"/>
        <path d="M384 172.7h64v60h-64z"/>
    </g>
</symbol><symbol id="icon-heart" viewBox="0 0 128 128">
    <path d="M64.007 113.986a1.99 1.99 0 0 1-1.313-.492c-1.625-1.416-39.874-34.947-49.605-60.949a27.378 27.378 0 0 1-2.255-10.929c0-15.21 12.375-27.585 27.586-27.585 11.604 0 21.558 7.201 25.627 17.369 4.116-10.066 14.019-17.177 25.549-17.177 15.212 0 27.588 12.374 27.588 27.585a27.7 27.7 0 0 1-.053 1.635c-.085 24.652-49.694 68.207-51.809 70.051a1.999 1.999 0 0 1-1.315.492zM38.419 18.031c-13.005 0-23.586 10.581-23.586 23.585 0 3.258.654 6.415 1.944 9.384.015.032.027.065.04.098 8.369 22.436 40.298 52.006 47.189 58.211 7.947-7.148 49.123-45.193 49.123-65.929 0-.042.001-.083.004-.124.029-.479.049-.962.049-1.448 0-13.005-10.581-23.585-23.588-23.585s-23.587 10.58-23.587 23.585c0 .118.005.233.009.35l.01.3a1.997 1.997 0 0 1-.571 1.442c-.754.771-2.132.768-2.884-.006a2.016 2.016 0 0 1-.583-1.452l.006-.184c.007-.214.014-.427.014-.641-.001-13.006-10.582-23.586-23.589-23.586z"/>
</symbol><symbol id="icon-in" viewBox="0 0 100 100">
    <style>
        .st0,.st1{fill:#231f20}.st1,.st2{fill-rule:evenodd;clip-rule:evenodd}
    </style>
    <g id="Layer_1">
        <path d="M66.8 75.4v-22s-1.2-4.6-5.6-4.4c-4.4.2-5.8.9-7.8 3.3v23.1H42.1V40.5h11.2v5.1s3.6-7.1 11.2-6.6c6.9.5 12.1 4.7 13.2 13.9h.3v22.5H66.8zM28.7 36C25 36 22 33 22 29.2c0-3.7 3-6.8 6.7-6.8s6.7 3 6.7 6.8c0 3.7-3 6.8-6.7 6.8zm5.6 39.4H23.1V40.5h11.2v34.9z" id="linkedin"/>
    </g>
</symbol><symbol id="icon-list" viewBox="0 0 24 24">
    <path clip-rule="evenodd" d="M24 18.998a.5.5 0 0 1-.502.502h-18a.497.497 0 0 1-.494-.502v-1.997c0-.278.221-.501.494-.501h18a.5.5 0 0 1 .502.501v1.997zm-21 0a.5.5 0 0 1-.502.502H.504A.5.5 0 0 1 0 18.998v-1.997a.5.5 0 0 1 .504-.501h1.994a.5.5 0 0 1 .502.501v1.997zm21-5.999a.499.499 0 0 1-.502.501h-18a.497.497 0 0 1-.494-.501v-2c0-.273.221-.498.494-.498h18a.5.5 0 0 1 .502.498v2zm-21 0a.5.5 0 0 1-.502.501H.504A.5.5 0 0 1 0 12.999v-2a.5.5 0 0 1 .504-.499h1.994a.5.5 0 0 1 .502.498v2.001zm21-5.998a.501.501 0 0 1-.502.499h-18a.498.498 0 0 1-.494-.499V4.998c0-.273.221-.498.494-.498h18a.5.5 0 0 1 .502.498v2.003zm-21 0a.501.501 0 0 1-.502.499H.504A.501.501 0 0 1 0 7.001V4.998A.5.5 0 0 1 .504 4.5h1.994A.5.5 0 0 1 3 4.998v2.003z" fill-rule="evenodd"/>
</symbol><symbol id="icon-question" viewBox="0 0 24 24">
    <path d="M24 0c0-.6-.4-1-1-1H1C.4-1 0-.6 0 0v22c0 .6.4 1 1 1h22c.6 0 1-.4 1-1V0zm-2 21H2V1h20v20z"/>
    <path d="M10 17c0 1.1.9 2 2 2s2-.9 2-2-.9-2-2-2-2 .9-2 2zm2-1c.6 0 1 .4 1 1s-.4 1-1 1-1-.4-1-1 .5-1 1-1z"/>
    <path d="M9 10c1.1 0 2-.9 2-2 0-.6.4-1 1-1s1 .4 1 1-.5 1-1 1c-1.1 0-2 1-2 3v1c0 1.1.9 2 2 2s2-.9 2-2l1-1c1.2-.9 2-2.3 2-4 0-2.8-2.2-5-5-5S7 5.2 7 8c0 1.1.9 2 2 2zm3-6c2.2 0 4 1.8 4 4 0 1.3-.6 2.4-1.5 3.1-.3.3-1.5.7-1.5 1.4v.5c0 .6-.4 1-1 1s-1-.4-1-1v-1c0-1 .5-2 1-2 1.1 0 2-.9 2-2s-.9-2-2-2-2 .9-2 2c0 .6-.4 1-1 1s-1-.4-1-1c0-2.2 1.8-4 4-4z"/>
</symbol><symbol id="icon-search" viewBox="0 0 32 32">
    <title/>
    <path d="M19.427 20.427a8.5 8.5 0 1 1 1.083-.917l5.998 5.998a.699.699 0 0 1-.008.992.7.7 0 0 1-.992.008l-6.08-6.08zM14.5 21a7.5 7.5 0 1 0 0-15 7.5 7.5 0 0 0 0 15z" fill-rule="evenodd"/>
</symbol><symbol id="icon-twitter" viewBox="0 0 56.693 56.693">
    <path d="M52.837 15.065a20.11 20.11 0 0 1-5.805 1.591 10.125 10.125 0 0 0 4.444-5.592 20.232 20.232 0 0 1-6.418 2.454 10.093 10.093 0 0 0-7.377-3.192c-5.581 0-10.106 4.525-10.106 10.107 0 .791.089 1.562.262 2.303-8.4-.422-15.848-4.445-20.833-10.56a10.055 10.055 0 0 0-1.368 5.082c0 3.506 1.784 6.6 4.496 8.412a10.078 10.078 0 0 1-4.578-1.265l-.001.128c0 4.896 3.484 8.98 8.108 9.91a10.162 10.162 0 0 1-4.565.172c1.287 4.015 5.019 6.938 9.441 7.019a20.276 20.276 0 0 1-12.552 4.327c-.815 0-1.62-.048-2.411-.142a28.6 28.6 0 0 0 15.493 4.541c18.591 0 28.756-15.4 28.756-28.756 0-.438-.009-.875-.028-1.309a20.47 20.47 0 0 0 5.042-5.23z"/>
</symbol><symbol id="icon-user" viewBox="0 0 50 50">
    <path d="M35.835 20.579C38.335 18.978 40 16.183 40 13c0-4.963-4.038-9-9-9-.857 0-1.705.128-2.531.373C26.635 2.31 23.971 1 21 1c-5.514 0-10 4.486-10 10a9.996 9.996 0 0 0 4.38 8.265C9.463 20.481 5 25.729 5 32v17h32v-4h8V33c0-5.834-3.863-10.781-9.165-12.421zM29.722 6.12C30.144 6.04 30.571 6 31 6c3.86 0 7 3.141 7 7s-3.14 7-7 7c-1.373 0-2.695-.4-3.826-1.144l.042-.037a10.094 10.094 0 0 0 2.195-2.431l.067-.11a9.787 9.787 0 0 0 .896-1.828l.071-.193c.096-.276.177-.557.249-.844.019-.074.04-.148.057-.222a9.71 9.71 0 0 0 .15-.86c.011-.078.027-.154.035-.232.04-.36.064-.727.064-1.099 0-.396-.029-.785-.074-1.169-.014-.121-.037-.24-.055-.361a9.953 9.953 0 0 0-.252-1.173 9.955 9.955 0 0 0-.284-.855c-.029-.075-.052-.152-.083-.227a9.889 9.889 0 0 0-.53-1.095zM13 11c0-4.411 3.589-8 8-8a7.989 7.989 0 0 1 6.162 2.904l.064.083c.049.06.092.125.139.186a8.028 8.028 0 0 1 1.171 2.167c.019.053.04.104.057.157.119.357.208.724.275 1.096.014.079.025.159.037.239.056.385.095.773.095 1.168 0 .328-.025.652-.065.973-.009.076-.023.15-.034.225a7.904 7.904 0 0 1-.159.782l-.042.165a8.034 8.034 0 0 1-.771 1.836l-.02.033a8.122 8.122 0 0 1-.532.797l-.054.073a8.013 8.013 0 0 1-1.417 1.422l-.085.064a8.021 8.021 0 0 1-.797.534l-.095.058-.155.09A7.97 7.97 0 0 1 21 19c-4.411 0-8-3.589-8-8zm22 36H7V32c0-6.065 4.935-11 11-11h6c1.495 0 2.921.302 4.222.845l.192.086c.111.049.218.105.327.158.297.142.584.297.864.463.127.076.256.15.38.231a11.153 11.153 0 0 1 .783.563c.115.09.229.179.34.273a10.973 10.973 0 0 1 .861.82c.135.143.269.287.397.436a11.112 11.112 0 0 1 .573.738c.088.122.176.244.259.37a11.26 11.26 0 0 1 .631 1.104 9.88 9.88 0 0 1 .567 1.345c.046.134.096.267.137.403.084.279.157.562.219.849.024.11.041.223.062.334a10.669 10.669 0 0 1 .138.991c.027.327.048.657.048.991v15zm8-4h-6V32c0-.475-.029-.943-.079-1.405-.012-.111-.035-.219-.05-.329a12.969 12.969 0 0 0-.179-1.052c-.026-.116-.06-.229-.089-.344a13.175 13.175 0 0 0-.285-.994c-.038-.113-.082-.224-.123-.336-.117-.32-.244-.634-.385-.942a14.542 14.542 0 0 0-.834-1.536c-.178-.28-.367-.551-.565-.817-.075-.1-.147-.202-.224-.3a13.32 13.32 0 0 0-.687-.793c-.07-.075-.134-.153-.206-.227a13.118 13.118 0 0 0-.993-.922C38.227 22.163 43 27.035 43 33v10z"/>
</symbol><symbol id="icon-youtube" viewBox="0 0 512 512">
    <linearGradient gradientTransform="matrix(1 0 0 -1 -41.66 349.04)" gradientUnits="userSpaceOnUse" id="a" x1="67.643" x2="694.276" y1="323.122" y2="-303.511">
        <stop offset="0" stop-color="#dd272d"/>
        <stop offset=".515" stop-color="#ca2429"/>
        <stop offset="1" stop-color="#b22025"/>
    </linearGradient>
    <path d="M391.939 159.642c-11.485-12.816-24.349-12.892-30.247-13.618-42.252-3.275-105.625-3.275-105.625-3.275h-.142s-63.374 0-105.616 3.275c-5.898.727-18.752.802-30.247 13.618-9.041 9.777-11.995 31.984-11.995 31.984s-3.02 26.057-3.02 52.115v24.424c0 26.076 3.02 52.124 3.02 52.124s2.945 22.197 11.995 31.955c11.495 12.816 26.566 12.429 33.286 13.769C177.499 368.487 256 369.251 256 369.251s63.44-.113 105.691-3.35c5.898-.755 18.762-.83 30.247-13.647 9.041-9.758 11.995-31.955 11.995-31.955s3.02-26.057 3.02-52.124V243.75c0-26.066-3.02-52.124-3.02-52.124s-2.943-22.206-11.994-31.984zM218.297 312.626V199.375l94.376 56.626-94.376 56.625z"/>
</symbol></svg>